<svg width="451" height="404" viewBox="0 0 451 404" fill="none" xmlns="http://www.w3.org/2000/svg">
<path d="M279.364 392.882C279.364 394.355 280.558 395.549 282.03 395.549C283.503 395.549 284.697 394.355 284.697 392.882C284.697 391.409 283.503 390.215 282.03 390.215C280.558 390.215 279.364 391.409 279.364 392.882ZM367.303 392.882C367.303 394.355 368.497 395.549 369.97 395.549C371.442 395.549 372.636 394.355 372.636 392.882C372.636 391.409 371.442 390.215 369.97 390.215C368.497 390.215 367.303 391.409 367.303 392.882ZM282.03 393.382H369.97V392.382H282.03V393.382Z" fill="black"/>
<path d="M276.952 230.436C276.952 231.908 278.146 233.102 279.619 233.102C281.092 233.102 282.286 231.908 282.286 230.436C282.286 228.963 281.092 227.769 279.619 227.769C278.146 227.769 276.952 228.963 276.952 230.436ZM364.892 230.436C364.892 231.908 366.086 233.102 367.559 233.102C369.031 233.102 370.225 231.908 370.225 230.436C370.225 228.963 369.031 227.769 367.559 227.769C366.086 227.769 364.892 228.963 364.892 230.436ZM279.619 230.936H367.559V229.936H279.619V230.936Z" fill="black"/>
<path d="M285.583 126.524C285.583 127.997 286.777 129.191 288.25 129.191C289.723 129.191 290.917 127.997 290.917 126.524C290.917 125.051 289.723 123.857 288.25 123.857C286.777 123.857 285.583 125.051 285.583 126.524ZM405.083 126.524C405.083 127.997 406.277 129.191 407.75 129.191C409.223 129.191 410.417 127.997 410.417 126.524C410.417 125.051 409.223 123.857 407.75 123.857C406.277 123.857 405.083 125.051 405.083 126.524ZM288.25 127.024H407.75V126.024H288.25V127.024Z" fill="black"/>
<path d="M328.09 392.205C305.952 392.205 287.342 385.467 272.262 371.991C257.504 358.516 250.124 339.104 250.124 313.757C250.124 295.469 253.653 280.229 260.712 268.036C267.771 255.523 277.396 246.379 289.588 240.604C302.101 234.508 316.379 231.46 332.421 231.46C351.557 231.46 368.402 234.345 382.955 240.116V221.834C382.955 204.83 380.067 192.156 374.292 183.814C368.517 175.472 359.373 171.301 346.86 171.301C336.272 171.301 327.769 174.67 321.352 181.408C315.256 188.145 312.208 196.648 312.208 206.915L261.675 207.878C261.675 191.193 264.883 176.755 271.3 164.563C277.717 152.371 287.022 143.066 299.214 136.649C311.406 130.232 326.165 127.024 343.491 127.024C375.255 127.024 398.195 136.008 412.313 153.975C426.751 171.622 433.97 195.204 433.97 224.722L435.414 388.354L395.949 390.761L387.248 370.78C385.115 372.821 382.882 374.829 380.549 376.804C368.356 387.071 350.87 392.205 328.09 392.205ZM345.897 270.443C338.197 270.443 331.298 272.047 325.202 275.256C319.106 278.143 314.454 282.475 311.246 288.25C308.037 294.025 306.433 300.923 306.433 308.945C306.433 321.458 310.123 330.923 317.502 337.34C324.882 343.436 334.186 346.484 345.416 346.484C355.041 346.484 363.704 344.077 371.404 339.265C375.33 336.752 378.987 333.894 382.375 330.689L382.05 278.713C377.645 276.753 373.294 275.119 368.998 273.812C361.939 271.566 354.239 270.443 345.897 270.443Z" fill="#F2979B" stroke="black" stroke-width="3"/>
<rect x="256.5" y="202.5" width="11" height="11" fill="#F2979B" stroke="black" stroke-width="3"/>
<path d="M259.333 158.5C259.333 159.973 260.527 161.167 262 161.167C263.473 161.167 264.667 159.973 264.667 158.5C264.667 157.027 263.473 155.833 262 155.833C260.527 155.833 259.333 157.027 259.333 158.5ZM262.5 202.5V158.5H261.5V202.5H262.5Z" fill="black"/>
<rect x="306.5" y="201.5" width="11" height="11" fill="#F2979B" stroke="black" stroke-width="3"/>
<rect x="341.5" y="121.024" width="11" height="11" fill="#F2979B" stroke="black" stroke-width="3"/>
<path d="M246.656 366.45C246.656 367.923 247.85 369.117 249.322 369.117C250.795 369.117 251.989 367.923 251.989 366.45C251.989 364.977 250.795 363.783 249.322 363.783C247.85 363.783 246.656 364.977 246.656 366.45ZM246.656 257.5C246.656 258.973 247.85 260.167 249.322 260.167C250.795 260.167 251.989 258.973 251.989 257.5C251.989 256.027 250.795 254.833 249.322 254.833C247.85 254.833 246.656 256.027 246.656 257.5ZM249.822 366.45L249.822 257.5L248.822 257.5L248.822 366.45L249.822 366.45Z" fill="black"/>
<path d="M434.368 162.083C432.895 162.083 431.701 163.277 431.701 164.75C431.701 166.223 432.895 167.417 434.368 167.417C435.841 167.417 437.035 166.223 437.035 164.75C437.035 163.277 435.841 162.083 434.368 162.083ZM434.868 218.87L434.868 164.75L433.868 164.75L433.868 218.87L434.868 218.87Z" fill="black"/>
<rect x="322.089" y="224.936" width="11" height="11" fill="#F2979B" stroke="black" stroke-width="3"/>
<rect x="377.5" y="235.25" width="11" height="11" fill="#F2979B" stroke="black" stroke-width="3"/>
<rect x="428.868" y="223.186" width="11" height="11" fill="#F2979B" stroke="black" stroke-width="3"/>
<rect x="243.822" y="306.5" width="11" height="11" fill="#F2979B" stroke="black" stroke-width="3"/>
<rect x="377.5" y="274.25" width="11" height="11" fill="#F2979B" stroke="black" stroke-width="3"/>
<rect x="320.5" y="387.382" width="11" height="11" fill="#F2979B" stroke="black" stroke-width="3"/>
<rect x="377.5" y="324.5" width="11" height="11" fill="#F2979B" stroke="black" stroke-width="3"/>
<rect x="381.5" y="364.95" width="11" height="11" fill="#F2979B" stroke="black" stroke-width="3"/>
<rect x="391.417" y="384.5" width="11" height="11" fill="#F2979B" stroke="black" stroke-width="3"/>
<rect x="428.868" y="382.705" width="11" height="11" fill="#F2979B" stroke="black" stroke-width="3"/>
<path d="M315.333 171C315.333 172.473 316.527 173.667 318 173.667C319.473 173.667 320.667 172.473 320.667 171C320.667 169.527 319.473 168.333 318 168.333C316.527 168.333 315.333 169.527 315.333 171ZM371.333 171C371.333 172.473 372.527 173.667 374 173.667C375.473 173.667 376.667 172.473 376.667 171C376.667 169.527 375.473 168.333 374 168.333C372.527 168.333 371.333 169.527 371.333 171ZM318 171.5H374V170.5H318V171.5Z" fill="black"/>
<path d="M317.458 269.586C317.458 271.059 318.652 272.253 320.125 272.253C321.598 272.253 322.792 271.059 322.792 269.586C322.792 268.113 321.598 266.92 320.125 266.92C318.652 266.92 317.458 268.113 317.458 269.586ZM369.208 269.586C369.208 271.059 370.402 272.253 371.875 272.253C373.348 272.253 374.542 271.059 374.542 269.586C374.542 268.113 373.348 266.92 371.875 266.92C370.402 266.92 369.208 268.113 369.208 269.586ZM320.125 270.086L371.875 270.086L371.875 269.086L320.125 269.086L320.125 270.086Z" fill="black"/>
<path d="M316.708 347.187C316.708 348.66 317.902 349.853 319.375 349.853C320.848 349.853 322.042 348.66 322.042 347.187C322.042 345.714 320.848 344.52 319.375 344.52C317.902 344.52 316.708 345.714 316.708 347.187ZM369.958 347.187C369.958 348.66 371.152 349.853 372.625 349.853C374.098 349.853 375.292 348.66 375.292 347.187C375.292 345.714 374.098 344.52 372.625 344.52C371.152 344.52 369.958 345.714 369.958 347.187ZM319.375 347.687L372.625 347.687L372.625 346.687L319.375 346.687L319.375 347.687Z" fill="black"/>
<path d="M305.521 282.583C304.049 282.583 302.855 283.777 302.855 285.25C302.855 286.723 304.049 287.917 305.521 287.917C306.994 287.917 308.188 286.723 308.188 285.25C308.188 283.777 306.994 282.583 305.521 282.583ZM305.521 336.083C304.049 336.083 302.855 337.277 302.855 338.75C302.855 340.223 304.049 341.417 305.521 341.417C306.994 341.417 308.188 340.223 308.188 338.75C308.188 337.277 306.994 336.083 305.521 336.083ZM305.021 285.25L305.021 338.75L306.021 338.75L306.021 285.25L305.021 285.25Z" fill="black"/>
<rect x="341.5" y="166.5" width="11" height="11" fill="#F2979B" stroke="black" stroke-width="3"/>
<path fill-rule="evenodd" clip-rule="evenodd" d="M76.9768 11.3738H164.087L232.427 386.766H172.269L161.539 316.5H84.1607L74.5704 386.766H15.374L76.9768 11.3738ZM91.4521 263.079H153.381L120.68 48.9309L91.4521 263.079Z" fill="#F2979B" stroke="black" stroke-width="3"/>
<rect x="72.5" y="6.5" width="11" height="11" fill="#F2979B" stroke="black" stroke-width="3"/>
<rect x="9.5" y="380.5" width="11" height="11" fill="#F2979B" stroke="black" stroke-width="3"/>
<rect x="67.5" y="380.5" width="11" height="11" fill="#F2979B" stroke="black" stroke-width="3"/>
<rect x="167.5" y="380.5" width="11" height="11" fill="#F2979B" stroke="black" stroke-width="3"/>
<rect x="226.5" y="380.5" width="11" height="11" fill="#F2979B" stroke="black" stroke-width="3"/>
<rect x="158.5" y="6.5" width="11" height="11" fill="#F2979B" stroke="black" stroke-width="3"/>
<rect x="115.5" y="45.5" width="11" height="11" fill="#F2979B" stroke="black" stroke-width="3"/>
<rect x="84.5" y="258.5" width="11" height="11" fill="#F2979B" stroke="black" stroke-width="3"/>
<rect x="79.5" y="310.5" width="11" height="11" fill="#F2979B" stroke="black" stroke-width="3"/>
<rect x="147.5" y="258.5" width="11" height="11" fill="#F2979B" stroke="black" stroke-width="3"/>
<rect x="158.5" y="310.5" width="11" height="11" fill="#F2979B" stroke="black" stroke-width="3"/>
<rect x="340.5" y="264.086" width="11" height="11" fill="#F2979B" stroke="black" stroke-width="3"/>
<rect x="300.021" y="306.5" width="11" height="11" fill="#F2979B" stroke="black" stroke-width="3"/>
<rect x="340.5" y="341.687" width="11" height="11" fill="#F2979B" stroke="black" stroke-width="3"/>
</svg>
