<svg width="451" height="404" viewBox="0 0 451 404" fill="none" xmlns="http://www.w3.org/2000/svg">
<path d="M77.6028 12H164.713L233.053 387.392H172.895L118.511 31.2509H123.805L75.1964 387.392H16L77.6028 12ZM67.0148 263.705H181.557L182.52 317.126H67.9773L67.0148 263.705Z" fill="white"/>
<path d="M328.09 392.204C305.951 392.204 287.342 385.467 272.262 371.991C257.503 358.516 250.124 339.104 250.124 313.757C250.124 295.469 253.653 280.229 260.712 268.036C267.77 255.523 277.396 246.379 289.588 240.604C302.101 234.508 316.379 231.46 332.421 231.46C358.73 231.46 380.709 236.914 398.355 247.823L382.954 256.967V221.834C382.954 204.829 380.067 192.156 374.292 183.814C368.516 175.472 359.372 171.301 346.859 171.301C336.271 171.301 327.769 174.67 321.352 181.408C315.256 188.145 312.208 196.648 312.208 206.915L261.674 207.878C261.674 191.193 264.883 176.755 271.299 164.563C277.716 152.371 287.021 143.066 299.213 136.649C311.405 130.232 326.164 127.024 343.49 127.024C375.254 127.024 398.195 136.008 412.312 153.975C426.75 171.622 433.969 195.204 433.969 224.722L435.413 388.354L395.949 390.761L382.954 360.922L410.387 339.746L409.424 342.152C402.687 354.665 393.061 366.216 380.548 376.804C368.356 387.071 350.87 392.204 328.09 392.204ZM345.897 270.443C338.196 270.443 331.298 272.047 325.202 275.256C319.106 278.143 314.454 282.475 311.245 288.25C308.037 294.025 306.432 300.923 306.432 308.945C306.432 321.458 310.122 330.923 317.502 337.34C324.881 343.436 334.186 346.484 345.415 346.484C355.041 346.484 363.704 344.077 371.404 339.265C379.425 334.131 386.323 327.554 392.099 319.533L382.473 346.484L381.992 269.48L391.617 283.437C383.917 279.266 376.377 276.058 368.998 273.812C361.939 271.566 354.239 270.443 345.897 270.443Z" fill="white"/>
</svg>
