<svg xmlns="http://www.w3.org/2000/svg" fill="none" viewBox="0 0 1190 185"><path fill="#161B32" d="M63 229c-18 0-32-6-41-18S7 184 4 168A365 365 0 0 1 6 57c4-17 10-31 19-41C34 5 47 0 62 0a49 49 0 0 1 51 37c3 10 4 21 4 32l-36 3c0-5 0-11-2-16-1-5-3-10-6-13s-7-5-11-5c-6 0-10 3-14 9-3 6-5 15-7 25a352 352 0 0 0 1 86c3 12 6 20 10 26 4 5 9 8 15 8 5 0 9-3 13-8 3-6 4-13 5-21 1-9 0-18-1-28l5 8H64l-2-38h54l1 4a244 244 0 0 1-2 76c-2 11-8 22-16 31s-20 13-36 13Zm120 0c-15 0-29-5-40-17s-16-33-16-62c0-19 3-35 8-46 5-12 12-20 20-25a50 50 0 0 1 56 2c7 6 13 14 17 24a94 94 0 0 1 5 48l-1 10h-82l15-9c-1 14 0 24 3 32 3 7 8 10 14 10 5 0 8-1 11-5 3-3 4-7 5-12l34 1c-1 15-6 28-15 36-9 9-20 13-34 13Zm-1-124c-4 0-7 2-10 5s-5 8-7 14v22l-15-8h61l-11 7v-21c-1-6-3-11-6-14-3-4-7-5-12-5Zm106 124c-9 0-16-1-22-5-5-3-9-9-12-16s-4-16-4-26l1-150h36l-2 143c0 7 1 12 4 15 2 3 5 4 10 4 3 0 6 0 10-2l9-4 11 30a89 89 0 0 1-41 11ZM234 81h84l-1 34h-83V81Zm158-6h37v150l-37 1V75Zm18-17c-6 0-11-2-15-6-4-5-6-10-6-17 0-6 2-11 6-15a19 19 0 0 1 29 0c5 4 7 9 7 16 0 6-2 11-7 16-4 4-9 6-14 6Zm109 13c14 0 24 6 32 16 7 9 11 25 11 47v92h-37v-87c0-12-2-21-6-27-3-5-8-8-14-8-4 0-7 1-10 3l-7 12-2 23-13 8c0-20 1-35 5-47 4-11 9-20 15-24 7-5 16-8 26-8Zm-71 4 33-1 5 25v126l-37 1-1-151Zm227 154c-9 0-16-1-22-5-6-3-10-9-13-16-2-7-4-16-4-26l2-150h36l-3 143c0 7 2 12 4 15 3 3 6 4 10 4 3 0 7 0 11-2l9-4 11 30a89 89 0 0 1-41 11ZM620 81h84v34h-84V81Zm149 148c-16 0-30-5-41-17-10-12-16-32-16-61 0-19 3-35 9-47 5-12 12-20 20-25a55 55 0 0 1 56 0c9 5 15 13 20 25 6 12 8 28 8 47 0 20-2 36-8 48-5 11-12 19-20 24-9 4-18 6-28 6Zm0-34c4 0 7-1 10-4s5-8 6-15a122 122 0 0 0 0-52c-1-7-3-12-6-15-2-3-6-5-9-5-5 0-8 2-11 5s-5 8-7 15-2 15-2 25c0 16 1 28 5 35 4 8 8 11 14 11Zm108 34c-14 0-25-5-32-15s-11-26-11-47V74l38 1v86c0 13 1 22 5 27 3 6 8 9 13 9s8-2 11-4c3-3 5-7 7-13l2-23 12-8c0 20-1 36-5 48-3 11-8 20-15 25s-15 7-25 7Zm33-27V75h37l1 151h-33l-5-24Zm105 27c-10 0-20-2-29-7-8-6-15-14-20-26-6-12-9-27-9-46 0-18 2-33 7-45 6-11 12-20 20-25a52 52 0 0 1 54-2c8 4 15 10 20 19s8 19 8 32l-36 3c0-9-1-16-5-21-3-5-6-7-11-7-4 0-7 2-11 5-3 4-5 9-6 16-2 7-3 15-2 26 0 17 2 28 5 35 4 7 9 10 14 10s9-2 12-6c3-5 4-11 4-20l36 2c1 12-1 23-6 32s-11 15-19 19-17 6-26 6Zm129-158c14 0 25 6 33 16s12 27 12 49v90h-36v-82c0-14-1-24-4-31-3-6-8-9-16-9-4 0-8 1-11 4s-6 8-7 14c-2 6-3 14-3 24l-14 4c0-19 2-35 6-47 4-11 9-19 16-24s15-8 24-8Zm-68-63 37 1-1 216-35 1-1-218Z"/></svg>