<svg xmlns="http://www.w3.org/2000/svg" xmlns:xlink="http://www.w3.org/1999/xlink" width="97" height="97" viewBox="0 0 97 97"><defs><clipPath id="b"><rect width="97" height="97"/></clipPath></defs><g id="a" clip-path="url(#b)"><g transform="translate(6.486 10)"><path d="M24.887,80.432A24.374,24.374,0,1,0,.514,56.058,24.374,24.374,0,0,0,24.887,80.432Z" fill="#fdea98"/><path d="M45.854,49.192l-15.41,3.355L32.7,36.035,64.619,4.061a3.638,3.638,0,0,1,5.137,0l8.02,8.02a3.638,3.638,0,0,1,0,5.137Z" fill="none" stroke="#041432" stroke-miterlimit="10" stroke-width="5.215"/><path d="M33.9,34.83,46.85,48.2" fill="none" stroke="#041432" stroke-miterlimit="10" stroke-width="5.215"/><path d="M66.611,41.435V61.667A6.8,6.8,0,0,1,59.8,68.481H21.847a6.8,6.8,0,0,1-6.814-6.814V23.718A6.8,6.8,0,0,1,21.847,16.9H44.019" fill="none" stroke="#041432" stroke-linecap="round" stroke-miterlimit="10" stroke-width="5.215" stroke-dasharray="8.43 9.43"/></g></g></svg>