<svg xmlns="http://www.w3.org/2000/svg" xmlns:xlink="http://www.w3.org/1999/xlink" width="97" height="97" viewBox="0 0 97 97"><defs><clipPath id="b"><rect width="97" height="97"/></clipPath></defs><g id="a" clip-path="url(#b)"><g transform="translate(5.521 11)"><path d="M67.048,72.9A24.688,24.688,0,1,0,42.359,48.209,24.688,24.688,0,0,0,67.048,72.9Z" fill="#8ed5f6"/><path d="M34.131,41.186A6.133,6.133,0,1,0,28,35.053,6.133,6.133,0,0,0,34.131,41.186Z" fill="#041432"/><path d="M8.132,35.21V18.332c0-20.18,26-20.7,26,0V35.106" fill="none" stroke="#041432" stroke-miterlimit="10" stroke-width="5.215"/><path d="M32.453,10.208l5.084-5.084,29.51,29.51-32.6,32.6a5.094,5.094,0,0,1-7.129,0L4.934,44.855a5.094,5.094,0,0,1,0-7.129L27.106,15.554" fill="none" stroke="#041432" stroke-miterlimit="10" stroke-width="5.215"/><path d="M76.274,51.041a9.225,9.225,0,0,1-18.451,0c0-7.862,9.225-16.406,9.225-16.406S76.274,42.706,76.274,51.041Z" fill="none" stroke="#041432" stroke-miterlimit="10" stroke-width="5.215"/></g></g></svg>