<svg xmlns="http://www.w3.org/2000/svg" xmlns:xlink="http://www.w3.org/1999/xlink" width="97" height="97" viewBox="0 0 97 97"><defs><clipPath id="b"><rect width="97" height="97"/></clipPath></defs><g id="a" clip-path="url(#b)"><g transform="translate(11.32 13)"><path d="M56.565,52.638a23.8,23.8,0,1,0-23.8-23.8A23.8,23.8,0,0,0,56.565,52.638Z" fill="#b5ddbc"/><path d="M37.9,46.61A21.805,21.805,0,1,0,16.1,24.805,21.805,21.805,0,0,0,37.9,46.61Z" fill="none" stroke="#041432" stroke-linejoin="round" stroke-width="5.215"/><path d="M24.485,68.415A21.805,21.805,0,1,0,2.68,46.61,21.805,21.805,0,0,0,24.485,68.415Z" fill="none" stroke="#041432" stroke-linejoin="round" stroke-width="5.215"/><path d="M71.921,36.7A21.819,21.819,0,1,1,52.474,24.8a22.045,22.045,0,0,1,7.234,1.206" fill="none" stroke="#041432" stroke-linejoin="round" stroke-width="5.215"/></g></g></svg>