<svg xmlns="http://www.w3.org/2000/svg" xmlns:xlink="http://www.w3.org/1999/xlink" width="97" height="97" viewBox="0 0 97 97"><defs><clipPath id="b"><rect width="97" height="97"/></clipPath></defs><g id="a" clip-path="url(#b)"><g transform="translate(22.639 6)"><path d="M25.42,48.118A24.059,24.059,0,1,0,1.361,24.059,24.059,24.059,0,0,0,25.42,48.118Z" fill="#fbbe97"/><path d="M7.862,75.951V70.762a3.154,3.154,0,0,1,3.145-3.145H41.2a3.154,3.154,0,0,1,3.145,3.145v5.189" fill="none" stroke="#041432" stroke-miterlimit="10" stroke-width="5.215"/><path d="M37.685,67.617c.839-8.282,4.718-15.2,10.536-21.333a1.831,1.831,0,0,0,.21-2.359L27.149,13.838a1.278,1.278,0,0,0-2.044,0L3.824,43.925a1.831,1.831,0,0,0,.21,2.359c5.818,6.133,9.645,13.1,10.536,21.333" fill="none" stroke="#041432" stroke-miterlimit="10" stroke-width="5.215"/><path d="M26.1,49.8A6.395,6.395,0,1,0,19.707,43.4,6.395,6.395,0,0,0,26.1,49.8Z" fill="none" stroke="#041432" stroke-miterlimit="10" stroke-width="5.215"/><path d="M26.1,37.006V14.1" fill="none" stroke="#041432" stroke-miterlimit="10" stroke-width="5.215"/></g></g></svg>