<svg xmlns="http://www.w3.org/2000/svg" xmlns:xlink="http://www.w3.org/1999/xlink" width="97" height="97" viewBox="0 0 97 97"><defs><clipPath id="b"><rect width="97" height="97"/></clipPath></defs><g id="a" clip-path="url(#b)"><g transform="translate(13.1 9)"><path d="M57.729,75.91a24.95,24.95,0,1,0-24.95-24.95A24.95,24.95,0,0,0,57.729,75.91Z" fill="#c09dc9"/><path d="M28.847,19.458,38.6,9.709a2.6,2.6,0,0,1,3.722,0L56.942,24.333a2.6,2.6,0,0,1,0,3.722L26.017,58.98" fill="none" stroke="#041432" stroke-miterlimit="10" stroke-width="5.215"/><path d="M2.9,5.621v45.34a13,13,0,1,0,26,0V5.621A2.628,2.628,0,0,0,26.278,3H5.521A2.628,2.628,0,0,0,2.9,5.621Z" fill="none" stroke="#041432" stroke-miterlimit="10" stroke-width="5.215"/><path d="M15.849,63.96H59.773a2.628,2.628,0,0,0,2.621-2.621V40.582a2.628,2.628,0,0,0-2.621-2.621h-13" fill="none" stroke="#041432" stroke-miterlimit="10" stroke-width="5.215"/><path d="M15.848,54.368a4.141,4.141,0,1,0-4.141-4.141A4.141,4.141,0,0,0,15.848,54.368Z" fill="#041432"/></g></g></svg>