<svg xmlns="http://www.w3.org/2000/svg" xmlns:xlink="http://www.w3.org/1999/xlink" width="97" height="97" viewBox="0 0 97 97"><defs><clipPath id="b"><rect width="97" height="97"/></clipPath></defs><g id="a" clip-path="url(#b)"><g transform="translate(9.678 4)"><path d="M26.373,61.126A26.051,26.051,0,1,0,.322,35.075,26.051,26.051,0,0,0,26.373,61.126Z" fill="#f7a9ab"/><path d="M26.461,27.083l-8.043,8.043a3.617,3.617,0,0,0,0,5.115L55.185,77.008a3.617,3.617,0,0,0,5.115,0l8.043-8.043a3.617,3.617,0,0,0,0-5.115L31.575,27.083A3.617,3.617,0,0,0,26.461,27.083Z" fill="none" stroke="#041432" stroke-miterlimit="10" stroke-width="5.215"/><path d="M18.426,35.128l8.043-8.043a3.624,3.624,0,0,1,5.115,0L42.035,37.537,28.878,50.695,18.426,40.243A3.624,3.624,0,0,1,18.426,35.128Z" fill="none" stroke="#041432" stroke-miterlimit="10" stroke-width="5.215"/><path d="M28.836,11.592c-5.609,1-8.963,4.036-9.592,9.592-1.153-5.766-4.56-8.7-9.592-9.592C15.627,10.229,18.51,6.822,19.244,2,19.977,7.346,23.227,10.491,28.836,11.592Z" fill="#041432" stroke="#041432" stroke-linejoin="round" stroke-width="3.477"/><path d="M15.47,51.795c-3.407.577-5.451,2.464-5.818,5.818a6.671,6.671,0,0,0-5.818-5.818c3.617-.839,5.4-2.883,5.818-5.818Q10.36,50.851,15.47,51.795Z" fill="#041432" stroke="#041432" stroke-linejoin="round" stroke-width="3.477"/></g></g></svg>