<svg xmlns="http://www.w3.org/2000/svg" fill="none" viewBox="0 0 188 188"><g stroke="#171C32" stroke-miterlimit="10" clip-path="url(#a)"><path fill="white" stroke-width="6.25755" d="M93.9538 184.776c50.1602 0 90.8242-40.663 90.8242-90.8237 0-50.1607-40.664-90.82388-90.8242-90.82388-50.1607 0-90.82392 40.66318-90.82392 90.82388 0 50.1607 40.66322 90.8237 90.82392 90.8237Z"/><path fill="white" stroke-width="4.46968" d="M93.9522 161.043c37.0528 0 67.0898-30.038 67.0898-67.0903 0-37.0527-30.037-67.0899-67.0898-67.0899-37.0527 0-67.0899 30.0372-67.0899 67.0899 0 37.0523 30.0372 67.0903 67.0899 67.0903Z"/><path stroke-width="4.46968" d="m94.043 160.64.0447 23.779M77.3717 158.584l-5.9 23.019M61.6819 152.372l-11.3977 20.873M48.0501 142.493 31.8252 159.88M37.3237 129.576l-20.0688 12.739M30.1285 114.335 7.55664 121.71M26.9537 97.7959 3.21973 99.3156M27.9811 80.9899l-23.33169-4.425M33.1659 64.9892 11.6221 54.8877M42.1499 50.7753 23.8242 35.623M54.3973 39.1989l-13.9901-19.175M69.1473 31.0643 60.3867 8.98413M85.4615 26.8626 82.4668 3.30737M102.312 26.8626l2.906-23.5999M118.626 31.0194l8.716-22.12487M133.377 39.1093l13.945-19.2643M145.669 50.5963l18.281-15.1522M154.698 64.8102l21.499-10.1461M159.927 80.8122l23.331-4.4697M160.999 97.6182l23.734 1.475M157.871 114.156l22.617 7.33M150.719 129.397l20.069 12.694M139.992 142.403l16.315 17.298M126.404 152.282l11.487 20.829M110.761 158.539l5.944 22.974M81.4375 92.3432c11.9971 0 21.7225-9.7255 21.7225-21.7226s-9.7254-21.7227-21.7225-21.7227-21.7227 9.7256-21.7227 21.7227 9.7256 21.7226 21.7227 21.7226Z"/><path stroke-width="4.46968" d="M117.891 65.2289 82.2725 83.1431l17.9145 35.6179 35.618-17.914-17.914-35.6181Z"/><path stroke-width="4.46968" d="M91.0021 142.404 62.709 106.602l44.295-5.945-16.0019 41.747Z"/></g><defs><clipPath id="a"><path fill="white" d="M0 0h187.95v187.95H0z"/></clipPath></defs></svg>