<svg xmlns="http://www.w3.org/2000/svg" xmlns:xlink="http://www.w3.org/1999/xlink" width="46" height="46" viewBox="0 0 46 46"><defs><clipPath id="b"><rect width="46" height="46"/></clipPath></defs><g id="a" clip-path="url(#b)"><path d="M90-212a13.909,13.909,0,0,1-9.9-4.1A13.907,13.907,0,0,1,76-226a13.909,13.909,0,0,1,4.1-9.9A13.909,13.909,0,0,1,90-240a13.909,13.909,0,0,1,9.9,4.1A13.909,13.909,0,0,1,104-226a13.907,13.907,0,0,1-4.1,9.9A13.909,13.909,0,0,1,90-212Zm0-24a10.011,10.011,0,0,0-10,10,10.011,10.011,0,0,0,10,10,10.011,10.011,0,0,0,10-10A10.011,10.011,0,0,0,90-236Z" transform="translate(-67 249)" fill="#161b32"/></g></svg>